<?xml version="1.0" encoding="UTF-8"?>
<svg xmlns="http://www.w3.org/2000/svg" width="1096.852" height="287.169" viewBox="0 0 1096.852 287.169">
  <g id="Grupo_14" data-name="Grupo 14" transform="translate(-21.074 -26.968)">
    <g id="Grupo_7" data-name="Grupo 7">
      <g id="Grupo_6" data-name="Grupo 6">
        <path id="Caminho_1" data-name="Caminho 1" d="M22.885,213.335a3.314,3.314,0,0,1-.7-5.429s5.812-5.89,6.6-6.622c4.372-4.059,9.191-7.594,15.05-9.121,11.565-3.017,24.94,3.045,36.428,4.612,18.794,2.557,40.433,1.431,56.69-9.407l5.614-3.743c1.716-1.372,2.57-.571,1.9,1.78,0,0-.65,2.274-6.265,8.2s-9.98,9.671-20.272,15.908-18.4,8.42-26.51,10.6a117.443,117.443,0,0,1-29.006,3.429c-10.293,0-17.468-1.869-26.2-4.679A71.393,71.393,0,0,1,22.885,213.335Z" fill="#fe6110"></path>
        <path id="Caminho_2" data-name="Caminho 2" d="M37.472,157.3a3.318,3.318,0,0,1,.917-5.4s6.209-3.351,7.089-3.781c4.857-2.353,9.959-4.13,15.428-3.9,10.8.45,20.762,9.232,30.285,13.627,15.578,7.186,34.59,11.934,51.518,6.866l5.845-1.758c1.846-.732,2.269.35.938,2.4,0,0-.931,1.44-7.354,5.077s-11.192,5.725-21.742,8.391-18.141,2.418-25.733,2.163a106.394,106.394,0,0,1-25.993-4.706c-8.9-2.725-14.613-6.244-21.423-10.981A63.124,63.124,0,0,1,37.472,157.3Z" fill="#fe6110"></path>
        <path id="Caminho_3" data-name="Caminho 3" d="M66.5,108.344a3.316,3.316,0,0,1,2.817-4.7s5.908-.725,6.787-.8c4.866-.383,9.745-.206,14.279,1.787,8.943,3.931,14.446,14.6,21.017,21.435,10.752,11.176,25.2,21.427,41.122,22.73l5.5.445c1.794-.011,1.639,1.149-.347,2.579,0,0-.911.652-7.516,1.6s-11.306,1.138-21.071-.083-16.068-3.933-22.377-6.648a96.153,96.153,0,0,1-20.337-12.515c-6.6-5.225-10.251-10.063-14.426-16.291A55.906,55.906,0,0,1,66.5,108.344Z" fill="#5ec2d8"></path>
        <path id="Caminho_4" data-name="Caminho 4" d="M122.945,61.636a3.314,3.314,0,0,1,4.848-2.541s4.985,2.252,5.735,2.631c4.152,2.1,8.039,4.672,10.737,8.543,5.336,7.636,4.52,19.06,6.48,27.883,3.211,14.437,9.884,29.951,22.208,38.917l4.254,3.094c1.465.88.669,1.753-1.771,1.939,0,0-.858.067-6.708-2.436s-9.77-4.688-17.116-10.526-11.129-11.176-14.921-16.524a91.41,91.41,0,0,1-10.353-20.278c-2.783-7.529-3.354-13.278-3.661-20.424A52.578,52.578,0,0,1,122.945,61.636Z" fill="#5ec2d8"></path>
        <path id="Caminho_5" data-name="Caminho 5" d="M192.522,49.738a3.316,3.316,0,0,1,5.472.23s2.517,3.517,2.923,4.14c2.247,3.447,4.084,7.134,4.433,11.294.7,8.214-4.989,16.6-7.4,24.22-3.939,12.472-5.711,27.308-.25,39.632l1.888,4.253c.731,1.33-.472,1.547-2.676.484a49.528,49.528,0,0,1-3.594-4.621c-3.371-4.506-5.406-7.914-8.44-15.644s-3.566-13.488-4.1-19.259a81.006,81.006,0,0,1,1.065-20.113c1.208-7,3.321-11.654,6.25-17.26A45.392,45.392,0,0,1,192.522,49.738Z" fill="#143090"></path>
        <path id="Caminho_6" data-name="Caminho 6" d="M247.642,69.14a3.319,3.319,0,0,1,4.809,2.626s.494,3,.57,3.625a21.073,21.073,0,0,1-.869,10.313c-2.567,6.553-10.075,10.818-14.8,15.743-7.715,8.057-14.668,18.747-15.132,30.238l-.163,3.962c.059,1.29-1,.929-2.361-.805l-.876-4.724c-.881-4.721-1.145-8.1-.555-15.154A54.04,54.04,0,0,1,222.39,98.68a68.688,68.688,0,0,1,8.4-14.988,45.934,45.934,0,0,1,11.29-10.851A39.722,39.722,0,0,1,247.642,69.14Z" fill="#143090"></path>
        <path id="Caminho_7" data-name="Caminho 7" d="M280.217,107.364a3.32,3.32,0,0,1,3.338,4.345s-.527,2.048-.689,2.581a18.481,18.481,0,0,1-4.346,7.963c-4.376,4.339-11.911,5.105-17.441,7.384-9.042,3.729-18.4,9.836-22.839,18.89l-1.529,3.123c-.412,1.054-1.137.387-1.611-1.482l.967-4.1a42.873,42.873,0,0,1,4.921-12.346,47.356,47.356,0,0,1,9.071-11.6,60.369,60.369,0,0,1,12.043-9.046,40.313,40.313,0,0,1,12.9-4.7A43.434,43.434,0,0,1,280.217,107.364Z" fill="#143090"></path>
        <path id="Caminho_8" data-name="Caminho 8" d="M289.121,142.668a3.317,3.317,0,0,1,2.041,5.082s-.7,1.215-.97,1.63a16.427,16.427,0,0,1-5.644,5.791c-4.8,2.675-11.453,1.522-16.749,2.149-8.661,1.028-18.163,4.023-24.15,10.726l-2.061,2.312c-.607.806-1.067.063-1.025-1.658l1.816-3.291a38.24,38.24,0,0,1,7.192-9.414,42.157,42.157,0,0,1,10.573-7.777,53.637,53.637,0,0,1,12.512-4.869,35.847,35.847,0,0,1,12.2-.939C289.055,142.648,289.121,142.668,289.121,142.668Z" fill="#143090"></path>
        <path id="Caminho_9" data-name="Caminho 9" d="M289.462,179.5a3.285,3.285,0,0,1-.218,5.418s-.968.714-1.362.98a15.919,15.919,0,0,1-7.22,2.957c-5.28.524-10.723-3.051-15.655-4.529-8.062-2.415-17.626-3.414-25.5.222l-2.715,1.254c-.846.483-.968-.356-.268-1.863l2.871-2.214a36.83,36.83,0,0,1,9.982-5.57,40.848,40.848,0,0,1,12.345-2.83,51.923,51.923,0,0,1,12.948.5,34.546,34.546,0,0,1,11.161,3.855Z" fill="#143090"></path>
        <path id="Caminho_10" data-name="Caminho 10" d="M270.255,215.316c.608,1.849-.892,3.515-3.33,3.694,0,0-.15.013-.535.024a12.92,12.92,0,0,1-6.259-1.1c-3.863-1.927-6.056-6.754-8.809-9.913-4.5-5.167-10.655-10.007-17.654-10.92l-2.416-.314c-.792-.038-.509-.662.629-1.4l2.937-.277a30.006,30.006,0,0,1,9.293.494,33.168,33.168,0,0,1,9.724,3.414,42.5,42.5,0,0,1,8.7,5.962,28.159,28.159,0,0,1,6.011,7.506Z" fill="#143090"></path>
        <path id="Caminho_11" data-name="Caminho 11" d="M243.176,234.078c-.29,1.791-2.3,2.5-4.464,1.579l-.328-.159a12.065,12.065,0,0,1-4.711-3.589c-2.364-3.25-2.115-8.182-3.043-11.97-1.514-6.208-4.532-12.844-9.932-16.6l-1.863-1.3c-.639-.367-.135-.766,1.12-.885l2.546,1.03a27.836,27.836,0,0,1,7.479,4.386,30.9,30.9,0,0,1,6.586,6.991,39.427,39.427,0,0,1,4.643,8.655A26.286,26.286,0,0,1,242.975,231Z" fill="#143090"></path>
        <path id="Caminho_12" data-name="Caminho 12" d="M214.154,236.234c-.906,1.243-2.694,1.008-3.974-.519l-.186-.244a10.239,10.239,0,0,1-2.179-4.507c-.539-3.358,1.533-6.982,2.282-10.2,1.235-5.258,1.5-11.417-1.139-16.315l-.913-1.688c-.342-.526.19-.632,1.186-.242l1.523,1.746a23.71,23.71,0,0,1,3.964,6.17,26.075,26.075,0,0,1,2.291,7.793,33.273,33.273,0,0,1,.2,8.308,22.194,22.194,0,0,1-2.032,7.3Z" fill="#143090"></path>
        <path id="Caminho_13" data-name="Caminho 13" d="M192.112,221.018c-.95.425-1.925-.311-2.165-1.639l-.031-.206a6.947,6.947,0,0,1,.231-3.383c.809-2.162,3.245-3.6,4.765-5.245,2.489-2.679,4.71-6.219,4.8-9.991l.027-1.3c-.027-.423.323-.312.778.253l.311,1.542a16.041,16.041,0,0,1,.267,4.963,17.679,17.679,0,0,1-1.265,5.357,22.457,22.457,0,0,1-2.672,4.961,15.137,15.137,0,0,1-3.645,3.616Z" fill="#143090"></path>
        <path id="Caminho_14" data-name="Caminho 14" d="M179.459,206.424c-.813-.047-1.227-.916-.916-1.93l.051-.15a5.5,5.5,0,0,1,1.4-2.277c1.341-1.213,3.566-1.334,5.221-1.929,2.706-.97,5.539-2.626,6.969-5.226l.491-.9c.136-.3.339-.1.45.459l-.341,1.188a12.74,12.74,0,0,1-1.611,3.562,14.043,14.043,0,0,1-2.828,3.273,17.485,17.485,0,0,1-3.658,2.489,11.808,11.808,0,0,1-3.855,1.2Z" fill="#143090"></path>
      </g>
      <path id="Caminho_15" data-name="Caminho 15" d="M367.746,87.31s.472-4.9-12.541-4.9c0,0-8.89,0-11.316,5.189V228.3s-.33,6.425,12.216,6.425c0,0,11.936-.286,11.936-6.129V119.719s1.5-15.85,25.367-15.254c0,0,23.246-.041,23.854,15.254V228.3s-.295,6.139,12.542,6.139c0,0,11.629.286,11.629-5.521V116.372s2.761-32.732-46.488-33.958c0,0-23.555.3-27.2,4.9" fill="#143090" fill-rule="evenodd"></path>
      <path id="Caminho_16" data-name="Caminho 16" d="M539.258,193.914c0,6.87-1.742,12.178-5.181,15.9s-9.96,5.572-19.532,5.572q-14.08,0-19.262-5.292c-3.434-3.542-5.169-8.919-5.169-16.177a17.4,17.4,0,0,1,2.165-9.022,24.6,24.6,0,0,1,4.739-5.856,26.724,26.724,0,0,1,6.6-4.019c3.065-1.121,6.322-2.286,9.774-3.429,2.877-.947,5.964-2.044,9.338-3.289,3.347-1.249,6.479-2.324,9.324-3.287,0,0,6.642-1.242,7.26,7ZM551.635,92.725q-11.75-9.852-36.958-9.886a78.015,78.015,0,0,0-22.036,2.736A44.777,44.777,0,0,0,477.441,93a28.1,28.1,0,0,0-8.727,11.014,32.493,32.493,0,0,0-1.981,6.3c-.412,3.3.242,9.854,11.4,10.329,0,0,9.718.457,13.985-5.713a16.919,16.919,0,0,1,1.017-1.836c.1-.273.228-.474.313-.723h.114a24.971,24.971,0,0,1,1.6-2.106q5.031-5.806,19.39-5.8A39.393,39.393,0,0,1,526.468,106a21.411,21.411,0,0,1,7.609,4.177,14.5,14.5,0,0,1,4.014,5.581,16.248,16.248,0,0,1,1.167,5.868v5.429a13,13,0,0,1-1.312,6.02,22.989,22.989,0,0,1-2.991,4.562,12.924,12.924,0,0,1-3.573,3.029c-1.258.656-2.254,1.18-3.009,1.543-.774.21-2.677.875-5.706,2.01-3.076,1.16-6.629,2.458-10.746,3.886s-8.346,2.911-12.747,4.424c-4.363,1.513-8.3,2.879-11.717,4a30.656,30.656,0,0,0-15.884,12.591,36.353,36.353,0,0,0-5.59,19.767v13.459a39.178,39.178,0,0,0,1.867,11.279,26.366,26.366,0,0,0,7.307,11.325c3.627,3.443,8.6,6.291,14.892,8.592s14.5,3.426,24.628,3.426,18.33-1.164,24.641-3.426c6.28-2.3,11.259-5.149,14.885-8.592a26.386,26.386,0,0,0,7.332-11.325,39.863,39.863,0,0,0,1.849-11.314V117.53Q563.384,102.607,551.635,92.725Z" fill="#143090" fill-rule="evenodd"></path>
      <path id="Caminho_17" data-name="Caminho 17" d="M672.946,84.858c-9.251,0-11.306,3.049-11.776,4.5V194.326l-.134,3.134a21.563,21.563,0,0,1-1.146,5.606,12.781,12.781,0,0,1-3.4,5.576,20.411,20.411,0,0,1-7.4,4.44q-4.808,1.873-13.051,1.88-7.945,0-12.647-1.88a18.3,18.3,0,0,1-7.09-4.57,14,14,0,0,1-3.414-5.876,25.826,25.826,0,0,1-.7-5.445l-.125-2.865V88.751c-1.952-4.629-12.208-3.893-12.208-3.893-12.046,0-11.925,5.2-11.925,5.2h0v111.8a50.677,50.677,0,0,0,1.13,9.018,25.48,25.48,0,0,0,6.02,11.6q4.86,5.759,14.615,9.893c6.478,2.78,15.478,4.168,26.9,4.168,11.489,0,20.44-1.388,26.963-4.168,6.466-2.763,11.346-6.054,14.588-9.893a25.745,25.745,0,0,0,6.008-11.453,48.342,48.342,0,0,0,1.142-9.17V89.105c-1.518-5.026-12.344-4.247-12.344-4.247" fill="#143090" fill-rule="evenodd"></path>
      <path id="Caminho_18" data-name="Caminho 18" d="M793.781,51.018s-.138,5.122,11.727,5.122c0,0,12.33.9,12.33-5.42l.041-.038V33.113l-.117-.067c0-6.362-12.4-5.436-12.4-5.436-8.775,0-11.014,2.732-11.618,4.2v19.2Z" fill="#143090" fill-rule="evenodd"></path>
      <path id="Caminho_19" data-name="Caminho 19" d="M1096.471,156.532c-3.457-1.119-7.348-2.485-11.74-4s-8.619-2.995-12.743-4.424q-6.138-2.142-10.714-3.886c-3.045-1.135-4.974-1.8-5.718-2.01-.747-.363-1.782-.887-3-1.543a13.079,13.079,0,0,1-3.6-3.029,22.713,22.713,0,0,1-3-4.562,13.616,13.616,0,0,1-1.268-6.02v-5.429a16.544,16.544,0,0,1,1.142-5.868,14.769,14.769,0,0,1,4-5.581,21.756,21.756,0,0,1,7.612-4.177,39.785,39.785,0,0,1,11.955-1.54q14.339,0,19.373,5.8a20.144,20.144,0,0,1,4.455,8.851v-.027s-.058,5.19,12.009,5.19c0,0,12.67.931,12.67-5.516l.027-.09v-1.2a33.784,33.784,0,0,0-2.722-13.463A28.245,28.245,0,0,0,1106.469,93a44.851,44.851,0,0,0-15.183-7.428,78.082,78.082,0,0,0-22.047-2.736q-25.218,0-36.934,9.931-11.773,9.872-11.762,24.807v13.77a30.341,30.341,0,0,0,2.3,12.214,31.637,31.637,0,0,0,5.736,9.036,34.762,34.762,0,0,0,7.2,6.028,40.746,40.746,0,0,0,6.6,3.439c1.9.562,4.938,1.565,9.044,3.029,4.1,1.428,8.386,2.91,12.783,4.448q7.474,2.572,16.087,5.72a24.947,24.947,0,0,1,6.9,4.021,22.71,22.71,0,0,1,4.593,5.892,18.372,18.372,0,0,1,2.006,9.022q0,10.738-5.171,15.944-5.178,5.232-19.23,5.243c-9.582,0-16.119-1.845-19.567-5.507a19.121,19.121,0,0,1-4.6-9.644l-.067-.3c0-6.407-12.926-5.493-12.926-5.493-8.7,0-11.055,2.709-11.691,4.195v3.846a38.771,38.771,0,0,0,1.863,11.256,26,26,0,0,0,7.289,11.27q5.447,5.141,14.905,8.54c6.3,2.289,14.529,3.426,24.639,3.426s18.335-1.137,24.63-3.426,11.252-5.149,14.879-8.592a26.243,26.243,0,0,0,7.32-11.325,39.351,39.351,0,0,0,1.858-11.279V188.89a36.331,36.331,0,0,0-5.583-19.767,30.557,30.557,0,0,0-15.872-12.591" fill="#143090" fill-rule="evenodd"></path>
      <path id="Caminho_20" data-name="Caminho 20" d="M868.536,26.968h-4.849c-10.728.333-10.638,5.165-10.638,5.165v197.11s-.121,5.153,11.7,5.194h3.3c3.448-.171,8.454-1.084,9.112-4.706V31.609c-.636-3.417-5.234-4.4-8.628-4.641" fill="#143090" fill-rule="evenodd"></path>
      <path id="Caminho_21" data-name="Caminho 21" d="M808.552,85.037h-3.044c-9.949,0-11.511,3.569-11.762,4.8V229.516c.251,1.195,1.813,4.791,11.762,4.791,0,0,11.7.85,12.371-4.984V90.021c-.448-3.9-5.812-4.818-9.327-4.984" fill="#143090" fill-rule="evenodd"></path>
      <path id="Caminho_22" data-name="Caminho 22" d="M766.255,212.753a30.652,30.652,0,0,1-9.376-1.771,18.579,18.579,0,0,1-7.307-4.71,13.727,13.727,0,0,1-3.3-5.848,25.253,25.253,0,0,1-.694-5.592V103.189H765.86v-.063s4.29.094,4.29-9.859c0,0,.739-10.356-4.549-10.356l-.031-.072H745.578V49.749c-1.446-5.1-12.371-4.328-12.371-4.328-9.049,0-11.229,2.906-11.78,4.375V82.839H707.766l-.035.072c-5.324,0-4.558,10.356-4.558,10.356,0,9.953,4.329,9.859,4.329,9.859l-.049.063h13.974v96.64a51.174,51.174,0,0,0,1.137,9.013,24.946,24.946,0,0,0,6.125,11.587q4.944,5.7,14.655,9.857c5.529,2.391,12.926,3.725,22.158,4.052.6-.031,4.554-.667,4.554-10.618,0,0,.7-9.613-3.8-10.967" fill="#143090" fill-rule="evenodd"></path>
      <path id="Caminho_23" data-name="Caminho 23" d="M987.008,84.858c-9.251,0-11.306,3.049-11.776,4.5V194.326l-.134,3.134a21.563,21.563,0,0,1-1.146,5.606,12.79,12.79,0,0,1-3.4,5.576,20.42,20.42,0,0,1-7.4,4.44q-4.809,1.873-13.051,1.88-7.945,0-12.647-1.88a18.3,18.3,0,0,1-7.09-4.57,14,14,0,0,1-3.414-5.876,25.826,25.826,0,0,1-.7-5.445l-.125-2.865V88.751c-1.952-4.629-12.208-3.893-12.208-3.893-12.046,0-11.925,5.2-11.925,5.2h0v111.8a50.677,50.677,0,0,0,1.13,9.018,25.461,25.461,0,0,0,6.02,11.6q4.86,5.759,14.614,9.893c6.479,2.78,15.479,4.168,26.9,4.168,11.489,0,20.439-1.388,26.963-4.168,6.465-2.763,11.346-6.054,14.587-9.893a25.748,25.748,0,0,0,6.009-11.453,48.342,48.342,0,0,0,1.142-9.17V89.105c-1.518-5.026-12.344-4.247-12.344-4.247" fill="#143090" fill-rule="evenodd"></path>
    </g>
    <g id="Grupo_8" data-name="Grupo 8">
      <path id="Caminho_24" data-name="Caminho 24" d="M364.326,305.66l-6.818-11.471h-5.343V305.66h-5.391V274.934h13.5c6.081,0,10.042,3.962,10.042,9.628,0,5.482-3.593,8.43-7.278,9.029l7.509,12.069Zm-4.791-25.981h-7.37v9.766h7.37c3.04,0,5.252-1.935,5.252-4.883S362.575,279.679,359.535,279.679Z" fill="#143090"></path>
      <path id="Caminho_25" data-name="Caminho 25" d="M384.089,282.857c6.68,0,10.964,5.114,10.964,12.116v1.151H377.871a6.739,6.739,0,0,0,7.094,6.127,9.419,9.419,0,0,0,6.311-2.441l2.211,3.178a12.97,12.97,0,0,1-9.029,3.225c-6.68,0-11.655-4.652-11.655-11.7C372.8,288.063,377.5,282.857,384.089,282.857Zm-6.264,9.859h12.529a5.951,5.951,0,0,0-6.265-5.9A6.137,6.137,0,0,0,377.825,292.716Z" fill="#143090"></path>
      <path id="Caminho_26" data-name="Caminho 26" d="M405.834,287.648V305.66H401V287.648h-3.685V283.41H401v-1.244c0-4.975,2.948-7.692,7.048-7.692a8.014,8.014,0,0,1,3.87.875l-1.06,3.547a3.873,3.873,0,0,0-1.935-.461c-1.888,0-3.086,1.244-3.086,3.731v1.244h4.515v4.238Z" fill="#143090"></path>
      <path id="Caminho_27" data-name="Caminho 27" d="M423.938,282.857c6.68,0,10.964,5.114,10.964,12.116v1.151H417.72a6.739,6.739,0,0,0,7.094,6.127,9.417,9.417,0,0,0,6.311-2.441l2.211,3.178a12.97,12.97,0,0,1-9.029,3.225c-6.68,0-11.655-4.652-11.655-11.7C412.652,288.063,417.351,282.857,423.938,282.857Zm-6.264,9.859H430.2a5.953,5.953,0,0,0-6.266-5.9A6.137,6.137,0,0,0,417.674,292.716Z" fill="#143090"></path>
      <path id="Caminho_28" data-name="Caminho 28" d="M439.694,305.66V283.41h4.837v3.271a9.5,9.5,0,0,1,7.232-3.778v4.791a7.2,7.2,0,0,0-1.52-.138,7.684,7.684,0,0,0-5.712,2.948V305.66Z" fill="#143090"></path>
      <path id="Caminho_29" data-name="Caminho 29" d="M465.584,282.857c6.68,0,10.964,5.114,10.964,12.116v1.151H459.365a6.74,6.74,0,0,0,7.094,6.127,9.42,9.42,0,0,0,6.312-2.441l2.21,3.178a12.966,12.966,0,0,1-9.028,3.225c-6.68,0-11.655-4.652-11.655-11.7C454.3,288.063,459,282.857,465.584,282.857Zm3.547-2.81-3.547-4.422-3.455,4.422h-3.04l4.284-6.633H467.8l4.423,6.633Zm-9.812,12.669h12.53a5.952,5.952,0,0,0-6.265-5.9A6.138,6.138,0,0,0,459.319,292.716Z" fill="#143090"></path>
      <path id="Caminho_30" data-name="Caminho 30" d="M496.357,305.66V291.748c0-3.455-1.75-4.606-4.468-4.606a7.323,7.323,0,0,0-5.712,2.994V305.66H481.34V283.41h4.837v3.04a10.528,10.528,0,0,1,7.831-3.593c4.791,0,7.187,2.581,7.187,7.141V305.66Z" fill="#143090"></path>
      <path id="Caminho_31" data-name="Caminho 31" d="M517.595,282.857c4.33,0,6.956,1.843,8.523,3.962l-3.179,2.949a5.938,5.938,0,0,0-5.113-2.626c-4.055,0-6.726,3.04-6.726,7.37s2.671,7.417,6.726,7.417a6.047,6.047,0,0,0,5.113-2.626l3.179,2.948c-1.567,2.119-4.193,3.962-8.523,3.962-6.772,0-11.516-4.929-11.516-11.7C506.079,287.786,510.823,282.857,517.595,282.857Z" fill="#143090"></path>
      <path id="Caminho_32" data-name="Caminho 32" d="M529.758,276.73a2.995,2.995,0,1,1,2.994,2.995A3.018,3.018,0,0,1,529.758,276.73Zm.6,28.93V283.41h4.837v22.25Z" fill="#143090"></path>
      <path id="Caminho_33" data-name="Caminho 33" d="M555.049,305.66v-2.395a9.4,9.4,0,0,1-7.187,2.948c-3.639,0-7.739-2.442-7.739-7.37,0-5.114,4.1-7.233,7.739-7.233a9.2,9.2,0,0,1,7.187,2.856v-3.317c0-2.58-2.119-4.146-5.206-4.146a9.111,9.111,0,0,0-6.587,2.81l-1.981-3.363a13.231,13.231,0,0,1,9.351-3.593c4.93,0,9.26,2.074,9.26,8.062V305.66Zm0-8.43a6.515,6.515,0,0,0-5.3-2.3c-2.718,0-4.745,1.566-4.745,4.008,0,2.395,2.027,3.961,4.745,3.961a6.515,6.515,0,0,0,5.3-2.3Z" fill="#143090"></path>
      <path id="Caminho_34" data-name="Caminho 34" d="M598.444,314.137h-4.837V302.573a8.734,8.734,0,0,1-7.14,3.64c-5.759,0-9.859-4.376-9.859-11.7s4.1-11.655,9.859-11.655a8.878,8.878,0,0,1,7.14,3.593v-3.04h4.837Zm-4.837-24a7.222,7.222,0,0,0-5.712-2.994c-3.824,0-6.265,3.086-6.265,7.37,0,4.331,2.441,7.417,6.265,7.417a7.353,7.353,0,0,0,5.712-2.994Z" fill="#143090"></path>
      <path id="Caminho_35" data-name="Caminho 35" d="M619.728,305.66v-2.948a10.663,10.663,0,0,1-7.877,3.5c-4.791,0-7.141-2.487-7.141-7.048V283.41h4.837v14c0,3.455,1.751,4.515,4.469,4.515a7.4,7.4,0,0,0,5.712-2.9V283.41h4.837v22.25Z" fill="#143090"></path>
      <path id="Caminho_36" data-name="Caminho 36" d="M644.42,305.66v-2.395a9.394,9.394,0,0,1-7.186,2.948c-3.639,0-7.739-2.442-7.739-7.37,0-5.114,4.1-7.233,7.739-7.233a9.194,9.194,0,0,1,7.186,2.856v-3.317c0-2.58-2.119-4.146-5.2-4.146a9.114,9.114,0,0,0-6.588,2.81l-1.981-3.363A13.236,13.236,0,0,1,640,282.857c4.929,0,9.259,2.074,9.259,8.062V305.66Zm0-8.43a6.511,6.511,0,0,0-5.3-2.3c-2.718,0-4.745,1.566-4.745,4.008,0,2.395,2.027,3.961,4.745,3.961a6.511,6.511,0,0,0,5.3-2.3Z" fill="#143090"></path>
      <path id="Caminho_37" data-name="Caminho 37" d="M670.541,305.66V291.748c0-3.455-1.751-4.606-4.469-4.606a7.323,7.323,0,0,0-5.712,2.994V305.66h-4.837V283.41h4.837v3.04a10.528,10.528,0,0,1,7.831-3.593c4.791,0,7.187,2.581,7.187,7.141V305.66Z" fill="#143090"></path>
      <path id="Caminho_38" data-name="Caminho 38" d="M697.307,305.66v-3.04a9.012,9.012,0,0,1-7.14,3.593c-5.713,0-9.9-4.33-9.9-11.654,0-7.187,4.146-11.7,9.9-11.7a8.927,8.927,0,0,1,7.14,3.639V274.934h4.837V305.66Zm0-15.524a7.312,7.312,0,0,0-5.759-2.994c-3.823,0-6.264,3.086-6.264,7.417,0,4.284,2.441,7.37,6.264,7.37a7.27,7.27,0,0,0,5.759-2.949Z" fill="#143090"></path>
      <path id="Caminho_39" data-name="Caminho 39" d="M707.028,294.512c0-6.357,4.376-11.655,11.424-11.655,7.141,0,11.471,5.3,11.471,11.655,0,6.4-4.33,11.7-11.471,11.7C711.4,306.213,707.028,300.915,707.028,294.512Zm17.873,0c0-3.915-2.3-7.37-6.449-7.37-4.1,0-6.4,3.455-6.4,7.37,0,3.962,2.3,7.417,6.4,7.417C722.6,301.929,724.9,298.474,724.9,294.512Z" fill="#143090"></path>
      <path id="Caminho_40" data-name="Caminho 40" d="M746.922,299.257a11.486,11.486,0,0,0,7.555,3.133c2.9,0,4.376-1.06,4.376-2.718,0-1.936-2.349-2.626-5.067-3.225-3.824-.829-8.384-1.843-8.384-6.818,0-3.639,3.132-6.772,8.752-6.772a12.719,12.719,0,0,1,8.661,3.133l-2.027,3.408a8.978,8.978,0,0,0-6.587-2.671c-2.534,0-4.146.921-4.146,2.488,0,1.7,2.211,2.3,4.837,2.9,3.869.83,8.614,1.936,8.614,7.187,0,3.916-3.271,6.91-9.259,6.91a13.528,13.528,0,0,1-9.536-3.455Z" fill="#143090"></path>
      <path id="Caminho_41" data-name="Caminho 41" d="M778.294,282.857c6.68,0,10.964,5.114,10.964,12.116v1.151H772.075a6.739,6.739,0,0,0,7.094,6.127,9.417,9.417,0,0,0,6.311-2.441l2.211,3.178a12.967,12.967,0,0,1-9.028,3.225c-6.681,0-11.655-4.652-11.655-11.7C767.008,288.063,771.707,282.857,778.294,282.857Zm-6.265,9.859H784.56a5.953,5.953,0,0,0-6.266-5.9A6.138,6.138,0,0,0,772.029,292.716Z" fill="#143090"></path>
      <path id="Caminho_42" data-name="Caminho 42" d="M806.856,300.5V287.648h-3.684V283.41h3.684v-6.081h4.837v6.081h4.515v4.238h-4.515V299.3c0,1.52.738,2.626,2.119,2.626a3.123,3.123,0,0,0,2.166-.783l1.152,3.639a6.385,6.385,0,0,1-4.561,1.428C808.838,306.213,806.856,304.186,806.856,300.5Z" fill="#143090"></path>
      <path id="Caminho_43" data-name="Caminho 43" d="M820.585,305.66V283.41h4.837v3.271a9.5,9.5,0,0,1,7.232-3.778v4.791a7.212,7.212,0,0,0-1.52-.138,7.68,7.68,0,0,0-5.712,2.948V305.66Z" fill="#143090"></path>
      <path id="Caminho_44" data-name="Caminho 44" d="M850.159,305.66v-2.395a9.392,9.392,0,0,1-7.185,2.948c-3.64,0-7.74-2.442-7.74-7.37,0-5.114,4.1-7.233,7.74-7.233a9.193,9.193,0,0,1,7.185,2.856v-3.317c0-2.58-2.119-4.146-5.205-4.146a9.117,9.117,0,0,0-6.588,2.81l-1.98-3.363a13.233,13.233,0,0,1,9.351-3.593c4.929,0,9.259,2.074,9.259,8.062V305.66Zm0-8.43a6.511,6.511,0,0,0-5.3-2.3c-2.718,0-4.745,1.566-4.745,4.008,0,2.395,2.027,3.961,4.745,3.961a6.511,6.511,0,0,0,5.3-2.3Z" fill="#143090"></path>
      <path id="Caminho_45" data-name="Caminho 45" d="M862.23,300.5V287.648h-3.684V283.41h3.684v-6.081h4.837v6.081h4.515v4.238h-4.515V299.3c0,1.52.738,2.626,2.12,2.626a3.122,3.122,0,0,0,2.165-.783l1.152,3.639a6.385,6.385,0,0,1-4.561,1.428C864.212,306.213,862.23,304.186,862.23,300.5Z" fill="#143090"></path>
      <path id="Caminho_46" data-name="Caminho 46" d="M889.548,305.66v-2.395a9.393,9.393,0,0,1-7.186,2.948c-3.639,0-7.739-2.442-7.739-7.37,0-5.114,4.1-7.233,7.739-7.233a9.2,9.2,0,0,1,7.186,2.856v-3.317c0-2.58-2.119-4.146-5.2-4.146a9.114,9.114,0,0,0-6.588,2.81l-1.981-3.363a13.236,13.236,0,0,1,9.352-3.593c4.929,0,9.259,2.074,9.259,8.062V305.66Zm0-8.43a6.513,6.513,0,0,0-5.3-2.3c-2.719,0-4.745,1.566-4.745,4.008,0,2.395,2.026,3.961,4.745,3.961a6.513,6.513,0,0,0,5.3-2.3Z" fill="#143090"></path>
      <path id="Caminho_47" data-name="Caminho 47" d="M928.152,305.66v-3.04a9.01,9.01,0,0,1-7.14,3.593c-5.712,0-9.9-4.33-9.9-11.654,0-7.187,4.146-11.7,9.9-11.7a8.927,8.927,0,0,1,7.14,3.639V274.934h4.837V305.66Zm0-15.524a7.309,7.309,0,0,0-5.757-2.994c-3.825,0-6.266,3.086-6.266,7.417,0,4.284,2.441,7.37,6.266,7.37a7.268,7.268,0,0,0,5.757-2.949Z" fill="#143090"></path>
      <path id="Caminho_48" data-name="Caminho 48" d="M949.16,282.857c6.68,0,10.964,5.114,10.964,12.116v1.151H942.94a6.741,6.741,0,0,0,7.095,6.127,9.417,9.417,0,0,0,6.311-2.441l2.212,3.178a12.974,12.974,0,0,1-9.03,3.225c-6.679,0-11.654-4.652-11.654-11.7C937.874,288.063,942.572,282.857,949.16,282.857Zm-6.265,9.859h12.53a5.952,5.952,0,0,0-6.265-5.9A6.138,6.138,0,0,0,942.9,292.716Z" fill="#143090"></path>
      <path id="Caminho_49" data-name="Caminho 49" d="M981.592,314.137h-4.837V283.41h4.837v3.04a8.877,8.877,0,0,1,7.139-3.593c5.759,0,9.859,4.331,9.859,11.655s-4.1,11.7-9.859,11.7a8.734,8.734,0,0,1-7.139-3.64Zm5.712-26.995a7.22,7.22,0,0,0-5.712,2.994v8.8a7.352,7.352,0,0,0,5.712,2.994c3.823,0,6.264-3.086,6.264-7.417C993.568,290.228,991.127,287.142,987.3,287.142Z" fill="#143090"></path>
      <path id="Caminho_50" data-name="Caminho 50" d="M1002.875,276.73a3.019,3.019,0,0,1,2.995-2.994,2.995,2.995,0,0,1,0,5.989A3.019,3.019,0,0,1,1002.875,276.73Zm.6,28.93V283.41h4.837v22.25Z" fill="#143090"></path>
      <path id="Caminho_51" data-name="Caminho 51" d="M1014.854,299.257a11.484,11.484,0,0,0,7.554,3.133c2.9,0,4.376-1.06,4.376-2.718,0-1.936-2.349-2.626-5.067-3.225-3.823-.829-8.384-1.843-8.384-6.818,0-3.639,3.133-6.772,8.753-6.772a12.718,12.718,0,0,1,8.66,3.133l-2.027,3.408a8.976,8.976,0,0,0-6.587-2.671c-2.534,0-4.147.921-4.147,2.488,0,1.7,2.212,2.3,4.837,2.9,3.87.83,8.615,1.936,8.615,7.187,0,3.916-3.271,6.91-9.259,6.91a13.528,13.528,0,0,1-9.536-3.455Z" fill="#143090"></path>
      <path id="Caminho_52" data-name="Caminho 52" d="M1046.455,282.857c4.331,0,6.956,1.843,8.523,3.962l-3.179,2.949a5.936,5.936,0,0,0-5.113-2.626c-4.054,0-6.726,3.04-6.726,7.37s2.672,7.417,6.726,7.417a6.046,6.046,0,0,0,5.113-2.626l3.179,2.948c-1.567,2.119-4.192,3.962-8.523,3.962-6.771,0-11.516-4.929-11.516-11.7C1034.939,287.786,1039.684,282.857,1046.455,282.857Z" fill="#143090"></path>
      <path id="Caminho_53" data-name="Caminho 53" d="M1058.618,276.73a3.019,3.019,0,0,1,2.995-2.994,2.995,2.995,0,0,1,0,5.989A3.019,3.019,0,0,1,1058.618,276.73Zm.6,28.93V283.41h4.837v22.25Z" fill="#143090"></path>
      <path id="Caminho_54" data-name="Caminho 54" d="M1085.338,305.66V291.748c0-3.455-1.751-4.606-4.469-4.606a7.323,7.323,0,0,0-5.712,2.994V305.66h-4.837V283.41h4.837v3.04a10.528,10.528,0,0,1,7.831-3.593c4.791,0,7.187,2.581,7.187,7.141V305.66Z" fill="#143090"></path>
      <path id="Caminho_55" data-name="Caminho 55" d="M1110.029,305.66v-2.395a9.392,9.392,0,0,1-7.185,2.948c-3.64,0-7.74-2.442-7.74-7.37,0-5.114,4.1-7.233,7.74-7.233a9.194,9.194,0,0,1,7.185,2.856v-3.317c0-2.58-2.119-4.146-5.205-4.146a9.118,9.118,0,0,0-6.588,2.81l-1.98-3.363a13.235,13.235,0,0,1,9.351-3.593c4.929,0,9.259,2.074,9.259,8.062V305.66Zm0-8.43a6.51,6.51,0,0,0-5.3-2.3c-2.718,0-4.745,1.566-4.745,4.008,0,2.395,2.027,3.961,4.745,3.961a6.51,6.51,0,0,0,5.3-2.3Z" fill="#143090"></path>
    </g>
  </g>
</svg>
